<svg width="40" height="40" viewBox="0 0 40 40" fill="none" xmlns="http://www.w3.org/2000/svg">
<path d="M31.1445 10.217L31.156 10.23C31.1567 10.2974 29.5585 13.9385 29.3984 14.3011C28.0828 17.3391 26.7458 20.3678 25.388 23.387L24.6019 25.1561C24.4711 25.4466 24.2775 25.9072 24.0962 26.164C23.8998 26.19 23.5231 26.1824 23.3099 26.1838C22.8332 26.1902 22.3563 26.1886 21.8797 26.1794C21.6127 24.7699 21.358 23.3583 21.1149 21.9445C21.0603 21.6334 21.004 21.3227 20.9459 21.0123C20.8671 20.6111 20.7724 20.3061 20.7775 19.8933C20.7481 19.987 20.7168 20.088 20.6658 20.172C20.0316 21.2176 19.3458 22.233 18.6832 23.2578C18.2638 23.9163 17.8363 24.5694 17.4007 25.2174C17.231 25.4714 16.9148 25.991 16.7065 26.1773C16.4597 26.1918 16.1483 26.1815 15.8959 26.1854C15.4847 26.1918 15.0544 26.2042 14.645 26.1838C14.6382 25.697 14.6726 25.16 14.679 24.662L14.7632 19.6167L14.8099 14.3217C14.8205 13.5885 14.8598 12.884 14.8599 12.1432C15.7889 12.1146 16.7793 12.1262 17.7136 12.1219C17.7106 14.8739 17.6599 17.6257 17.5616 20.3759C17.7027 20.1862 17.8094 19.9875 17.9353 19.7877L18.7335 18.5167C19.2822 17.6436 19.8597 16.7868 20.4145 15.9166C21.2201 15.9067 22.1151 15.8856 22.9169 15.9046C22.9918 16.2342 23.0423 16.6175 23.1112 16.9546C23.3556 18.1531 23.518 19.3597 23.7223 20.5641C23.8674 20.3163 23.949 20.0475 24.0707 19.7909C24.2423 19.4292 24.368 19.0516 24.5249 18.6858L26.195 14.8704C26.3585 14.4915 26.5779 13.9266 26.772 13.5645C26.8508 13.4179 27.3482 13.0767 27.5179 12.9524L28.5714 12.1813C29.4418 11.5376 30.284 10.8674 31.1445 10.217Z" fill="#0A0A0A"/>
<path d="M33.9777 12.1352C34.6712 12.1151 35.4164 12.1239 36.1122 12.123L40 12.127C39.6582 13.0622 39.3311 14.0027 39.0186 14.9481L35.2728 14.9444C34.5196 14.9448 33.7167 14.9604 32.969 14.9346C32.654 15.7355 32.3308 16.8418 32.0503 17.6802C32.2782 17.7017 32.6218 17.695 32.8587 17.6957L34.197 17.6983C34.9441 17.7003 35.5772 17.7027 36.1536 18.2749C36.6534 18.7708 36.8988 19.5245 36.7065 20.2125C36.4639 21.0803 36.1632 21.936 35.8692 22.7876C35.5391 23.746 35.4279 24.3952 34.6827 25.1376C33.5531 26.2626 32.5458 26.1802 31.0853 26.1783C29.1131 26.1714 27.141 26.1749 25.1688 26.1887C25.2115 26.0633 25.4096 25.5857 25.4702 25.4539C25.6393 25.0868 26.13 23.6786 26.3192 23.4178C26.4532 23.3594 27.1031 23.3854 27.307 23.3832C28.5363 23.3757 29.7657 23.3748 30.995 23.3806C31.552 23.3823 32.2571 23.4077 32.799 23.3823C32.9005 23.1704 33.1229 22.4367 33.2099 22.1818C33.385 21.669 33.5759 21.1193 33.71 20.598C33.1879 20.5954 32.6655 20.5961 32.1433 20.6001C31.6508 20.6026 30.9833 20.6376 30.5224 20.5149C30.1645 20.4174 29.8376 20.23 29.573 19.9704C29.2043 19.6126 28.8937 19.0186 28.873 18.497C28.8618 18.2125 28.9863 17.8821 29.0777 17.6143C29.225 17.1837 29.3706 16.7528 29.5126 16.32L29.8939 15.1672C30.1459 14.3953 30.3182 13.8236 30.9226 13.2287C31.4852 12.6751 32.1996 12.2536 32.997 12.1618C33.3069 12.1262 33.6668 12.1385 33.9777 12.1352Z" fill="#0A0A0A"/>
<path d="M0 12.1352C1.16441 12.105 2.39336 12.1274 3.56356 12.1317L7.89624 12.1281L10.8464 12.1289C11.4219 12.1298 11.9901 12.1258 12.571 12.1636C13.4536 12.131 14.4281 13.3888 14.5124 14.1979C14.5799 14.8453 14.0255 16.4558 13.8352 17.1438L13.4464 18.5425C13.3604 18.8591 13.2806 19.2097 13.1666 19.5139C13.0701 19.774 12.936 20.0187 12.7686 20.24C12.2231 20.964 11.4155 21.4451 10.5191 21.58C9.7462 21.6536 8.39703 21.6206 7.5662 21.6283C7.65467 21.3788 7.76838 20.9133 7.84747 20.6364L8.37918 18.8117C9.02547 18.788 9.78484 18.7735 10.4301 18.8071C10.5252 18.5278 10.5833 18.207 10.6576 17.9173C10.9125 16.922 11.2646 15.9213 11.4994 14.9241C11.1127 14.9575 10.6477 14.9464 10.2527 14.9469L8.26234 14.9488L7.09854 14.9532C6.99149 14.9535 6.52042 14.9588 6.4403 14.9365C6.19985 14.8695 5.83354 14.701 5.59449 14.5975L3.40402 13.6227C2.61876 13.2841 1.83533 12.9414 1.05375 12.5944C0.758812 12.4652 0.266223 12.2809 0 12.1352Z" fill="#0A0A0A"/>
<path d="M5.3368 15.5976C6.12754 15.837 7.24139 16.2421 8.02933 16.5295C7.83326 17.2922 7.63223 17.9332 7.41956 18.6759L6.11243 23.3581C5.72533 24.7021 5.91501 24.4191 4.8175 25.3259L2.44382 27.2708C2.32742 27.374 2.21015 27.476 2.09198 27.5768C2.1175 27.4227 2.14009 27.297 2.17684 27.1454C2.26521 26.9047 2.30677 26.6681 2.37633 26.4246C3.01624 24.1852 3.63081 21.9371 4.23941 19.6893L5.3368 15.5976Z" fill="#0A0A0A"/>
</svg>
