<svg width="12" height="12" viewBox="0 0 12 12" fill="none" xmlns="http://www.w3.org/2000/svg">
<path d="M7.36434 11.3044L6.03379 8.61516L4.98168 7.27008C4.82626 7.00709 4.74426 6.7072 4.74426 6.40172V3.375H5.11153C5.23534 3.37497 5.35794 3.39933 5.47234 3.44669C5.58673 3.49405 5.69068 3.56348 5.77824 3.65101C5.8658 3.73855 5.93525 3.84248 5.98264 3.95686C6.03003 4.07125 6.05442 4.19385 6.05442 4.31766V8.61516" stroke="currentColor" stroke-linecap="round" stroke-linejoin="round"/>
<path d="M2.99768 6.86836V5.1218C2.99768 5.1218 3.87096 3.375 4.74424 3.375" stroke="currentColor" stroke-linecap="round" stroke-linejoin="round"/>
<path d="M8.67422 6.43172L7.125 5.41406" stroke="currentColor" stroke-linecap="round" stroke-linejoin="round"/>
<path d="M3.99683 11.2116L5.25003 9.375" stroke="currentColor" stroke-linecap="round" stroke-linejoin="round"/>
<path d="M6.05443 2.50145C6.53673 2.50145 6.92771 2.11046 6.92771 1.62816C6.92771 1.14586 6.53673 0.754883 6.05443 0.754883C5.57213 0.754883 5.18115 1.14586 5.18115 1.62816C5.18115 2.11046 5.57213 2.50145 6.05443 2.50145Z" stroke="currentColor" stroke-linecap="round" stroke-linejoin="round"/>
</svg>
